<?xml version="1.0" encoding="utf-8"?>
<!-- Generator: Adobe Illustrator 24.2.1, SVG Export Plug-In . SVG Version: 6.00 Build 0)  -->
<svg version="1.1" id="Ebene_1" xmlns="http://www.w3.org/2000/svg" xmlns:xlink="http://www.w3.org/1999/xlink" x="0px" y="0px"
	 viewBox="14 10 50.262741 50.0" style="enable-background:new 0 0 76.262741 75.375969;" xml:space="preserve">
<style type="text/css">
	.st0{fill:none;stroke:#C6C7C8;stroke-width:7.086614;stroke-linecap:round;stroke-linejoin:round;stroke-miterlimit:10;}
	.st1{fill:#16DBAC;}
	.st2{fill:none;stroke:#16DBAC;stroke-width:6.985003;stroke-linecap:round;stroke-linejoin:round;stroke-miterlimit:10;}
	.st3{fill:#FFFFFF;}
	.st4{fill:#9C9E9F;}
	.st5{fill:#1A171B;}
</style>
<path class="st1" d="M53.194122,32.5378H45.76828l1.926819-3.08301c1.037109-1.659668,0.532715-3.845703-1.126953-4.882812
	c-1.658691-1.036133-3.845215-0.532715-4.882812,1.126953l-2.162903,3.460754l-5.835632-11.671204
	c-0.875-1.749999-3.003906-2.459472-4.753906-1.58496c-1.750488,0.875487-2.459961,3.003905-1.584961,4.753905L33.287933,32.5378
	h-2.770569c-1.957031,0-3.543457,1.586426-3.543457,3.543457s1.586426,3.542969,3.543457,3.542969h2.464905l-5.469788,8.751953
	c-1.037109,1.65918-0.532715,3.845703,1.126953,4.882812c0.583984,0.365234,1.23291,0.539062,1.874512,0.539062
	c1.181152,0,2.335938-0.59082,3.008301-1.666016l5.3125-8.500244l2.686035,5.372314
	c0.621094,1.241211,1.872559,1.958984,3.172363,1.958984c0.532227,0,1.073242-0.120117,1.581543-0.375
	c1.750488-0.875,2.459961-3.00293,1.584961-4.753906l-3.10498-6.209961h8.439453c1.957031,0,3.543457-1.585938,3.543457-3.542969
	S55.151154,32.5378,53.194122,32.5378z"/>
<circle class="st3" cx="39.021084" cy="36.080837" r="2.834646"/>
<circle class="st3" cx="44.690376" cy="27.5769" r="2.834646"/>
<circle class="st3" cx="53.194313" cy="36.080837" r="2.834646"/>
<circle class="st3" cx="30.517147" cy="36.080837" r="2.834646"/>
<circle class="st3" cx="30.517147" cy="50.254066" r="2.834646"/>
<circle class="st3" cx="44.690376" cy="47.419422" r="2.834646"/>
<circle class="st3" cx="30.517147" cy="19.072964" r="2.834646"/>
</svg>
